<svg width="975" height="94" viewBox="0 0 975 94" fill="none" xmlns="http://www.w3.org/2000/svg">
<path fill-rule="evenodd" clip-rule="evenodd" d="M0.0123132 0.918945C0.00477116 1.20582 0.000976563 1.49363 0.000976563 1.78233L0.000976563 63.0376C0.000976563 80.8431 14.4351 95.2773 32.2406 95.2773L942.76 95.2772C960.566 95.2772 975 80.8431 975 63.0377V1.78236C975 1.49365 974.996 1.20583 974.989 0.918945L950.775 0.918945C950.805 1.20261 950.82 1.49067 950.82 1.78236V63.0377C950.82 67.489 947.212 71.0975 942.76 71.0975L32.2406 71.0975C27.7892 71.0975 24.1807 67.489 24.1807 63.0376L24.1807 1.78233C24.1807 1.49065 24.1962 1.2026 24.2264 0.918945L0.0123132 0.918945Z" fill="#0D201D"/>
</svg>
