<svg width="289" height="34" viewBox="0 0 289 34" fill="none" xmlns="http://www.w3.org/2000/svg">
<path fill-rule="evenodd" clip-rule="evenodd" d="M0.00502401 0C0.00233133 0.102259 0.000976563 0.204851 0.000976563 0.30776L0.000976563 22.1084C0.000976563 28.4453 5.13806 33.5824 11.475 33.5824L277.526 33.5824C283.863 33.5824 289 28.4453 289 22.1084V0.30777C289 0.204858 288.999 0.102262 288.996 0L280.378 0C280.389 0.101112 280.395 0.203795 280.395 0.30777V22.1084C280.395 23.6926 279.11 24.9769 277.526 24.9769L11.475 24.9769C9.89075 24.9769 8.60648 23.6926 8.60648 22.1084L8.60648 0.30776C8.60648 0.203789 8.61201 0.101109 8.6228 0L0.00502401 0Z" fill="#0D201D"/>
</svg>
