<svg width="666" height="94" viewBox="0 0 666 94" fill="none" xmlns="http://www.w3.org/2000/svg">
<path fill-rule="evenodd" clip-rule="evenodd" d="M0.0123132 0.918945C0.00477116 1.20582 0.000976563 1.49363 0.000976563 1.78233L0.000976563 63.0376C0.000976563 80.8431 14.4351 95.2773 32.2406 95.2773L633.76 95.2773C651.566 95.2773 666 80.8431 666 63.0377V1.78236C666 1.49365 665.996 1.20583 665.989 0.918945L641.775 0.918945C641.805 1.20261 641.82 1.49067 641.82 1.78236V63.0377C641.82 67.489 638.212 71.0975 633.76 71.0975L32.2406 71.0975C27.7892 71.0975 24.1807 67.489 24.1807 63.0376L24.1807 1.78233C24.1807 1.49065 24.1962 1.2026 24.2264 0.918945L0.0123132 0.918945Z" fill="#0D201D"/>
</svg>
